#!OML:ASF X:\für Bonn\!DataBase\2005_08_11_Bastian_Final\c3d\Bastian.ASF
:FULLY-SPECIFIED
:DEGREES
109
root -1.74915 13.9792 2.3026 169.048 -2.5863 -171.848
lowerback 27.3963 0.0704012 2.0465
upperback 6.63073 -0.800003 1.58554
thorax -7.73295 -1.08356 0.935607
lowerneck -8.24521 -6.91759 -3.28375
upperneck -8.37364 -7.65042 11.7969
head -0.601453 -3.3669 4.25787
rclavicle 1.98785e-015 1.74931e-014
rhumerus 72.35 13.8901 10.1054
rradius 38.3874
rwrist -65.2893
rhand -49.3334 -8.48275
rfingers 7.12502
rthumb -21.9492 -37.2575
lclavicle 1.98785e-015 1.74931e-014
lhumerus 75.3232 -17.4877 -47.317
lradius 31.1961
lwrist 36.3888
lhand -44.6795 22.2388
lfingers 7.12502
lthumb -17.4752 51.4734
rfemur -30.489 -5.54502 30.4826
rtibia 87.6028
rfoot -37.0918 -13.8421
rtoes -3.53722
lfemur -31.7994 1.37605 -12.4697
ltibia 90.4845
lfoot -35.052 -7.57427
ltoes -9.3884
110
root -1.74702 14.1755 2.30185 169.351 -2.64393 -171.96
lowerback 26.9762 0.0429088 1.89211
upperback 6.58327 -0.854834 1.52139
thorax -7.57954 -1.09074 0.959775
lowerneck -8.09076 -6.90726 -3.51741
upperneck -8.35628 -7.61658 12.0901
head -0.600898 -3.34921 4.4134
rclavicle 1.78906e-015 -2.06736e-014
rhumerus 72.3951 14.0706 9.73856
rradius 38.2807
rwrist -64.8974
rhand -49.1024 -8.5806
rfingers 7.12502
rthumb -21.7274 -37.3812
lclavicle 1.78906e-015 -2.06736e-014
lhumerus 75.4272 -17.4983 -47.1535
lradius 31.2041
lwrist 36.2104
lhand -44.7816 22.3368
lfingers 7.12502
lthumb -17.5735 51.5626
rfemur -29.6402 -5.49903 30.2156
rtibia 85.4176
rfoot -36.54 -13.117
rtoes -3.16777
lfemur -30.8605 1.36109 -12.5798
ltibia 88.0184
lfoot -34.4149 -7.56064
ltoes -8.78871
111
root -1.74486 14.367 2.30033 169.642 -2.70198 -172.094
lowerback 26.573 0.0178757 1.71497
upperback 6.52724 -0.909572 1.46137
thorax -7.44284 -1.09763 1.00197
lowerneck -7.94742 -6.89331 -3.736
upperneck -8.32081 -7.58338 12.3588
head -0.594473 -3.33236 4.55744
rclavicle 4.17448e-015 -3.73715e-014
rhumerus 72.4452 14.2829 9.14652
rradius 38.0728
rwrist -64.2168
rhand -48.7969 -8.71419
rfingers 7.12502
rthumb -21.434 -37.5485
lclavicle 4.17448e-015 -3.73715e-014
lhumerus 75.4867 -17.5362 -46.6605
lradius 31.069
lwrist 35.6656
lhand -44.7307 22.2581
lfingers 7.12502
lthumb -17.5245 51.4883
rfemur -28.7831 -5.47043 29.9333
rtibia 83.2514
rfoot -35.9324 -12.4714
rtoes -3.04034
lfemur -29.9149 1.39138 -12.7131
ltibia 85.5727
lfoot -33.7904 -7.45139
ltoes -8.56888
112
root -1.74174 14.5534 2.29827 169.972 -2.76935 -172.224
lowerback 26.111 -0.0104365 1.55081
upperback 6.47286 -0.963058 1.395
thorax -7.27396 -1.10328 1.02729
lowerneck -7.87219 -6.88369 -3.92819
upperneck -8.23357 -7.56317 12.612
head -0.560045 -3.31941 4.68755
rclavicle -3.18055e-015 -7.95139e-015
rhumerus 72.4816 14.483 8.72246
rradius 37.9255
rwrist -63.7144
rhand -48.5741 -8.83521
rfingers 7.12502
rthumb -21.22 -37.6937
lclavicle -3.18055e-015 -7.95139e-015
lhumerus 75.5348 -17.5408 -46.2459
lradius 30.9699
lwrist 35.1705
lhand -44.6593 22.1636
lfingers 7.12502
lthumb -17.4558 51.3999
rfemur -27.9959 -5.43701 29.6812
rtibia 81.119
rfoot -35.3052 -11.8962
rtoes -3.1983
lfemur -29.0194 1.45004 -12.8245
ltibia 83.1422
lfoot -33.1998 -7.46178
ltoes -8.08898
